<?xml version="1.0" encoding="UTF-8"?>
<svg id="Ebene_1" data-name="Ebene 1" xmlns="http://www.w3.org/2000/svg" viewBox="0 0 57 57">
  <defs>
    <style>
      .cls-1 {
        fill: #0f2db3;
      }

      .cls-1, .cls-2 {
        stroke-width: 0px;
      }

      .cls-2 {
        fill: #fff;
      }
    </style>
  </defs>
  <path class="cls-1" d="m56.99,57c-8.69-3.92-18.34-6.1-28.49-6.1s-19.81,2.18-28.5,6.1V0h57v57Z"/>
  <g>
    <path class="cls-2" d="m6.83,17.27c-2.68,0-2.9,2.71-2.9,2.71h-1.28v-4.02h9.97s.08,3.11-2.87,6.41c0,0-2.81,3.26-2.88,4.69h1.62c2.32,0,2.56-2.71,2.56-2.71h1.34v4.03H2.2s-.38-3.05,3.16-6.76c0,0,2.18-2.43,2.68-4.35h-1.21Z"/>
    <path class="cls-2" d="m32.23,28.37v-1.32h-.3c-.55,0-1-.45-1-1v-7.78c0-.55.45-1,1-1h.3v-1.32h-6.61v1.32h.3c.56,0,1.01.45,1.01,1v7.78c0,.55-.45,1-1.01,1h-.3v1.32h6.61Z"/>
    <path class="cls-2" d="m24.25,28.38v-4.03h-1.34s-.25,2.71-2.57,2.71h-1.33v-4.23h.47c.56,0,1.01.45,1.01,1.01v.5h1.32v-4.34h-1.32v.5c0,.56-.45,1.01-1.01,1.01h-.47v-4.23h1.33c2.32,0,2.57,2.71,2.57,2.71h1.34v-4.03h-10.51v1.32h.3c.55,0,1,.45,1,1v7.78c0,.55-.45,1-1,1h-.3v1.32h10.51Z"/>
    <path class="cls-2" d="m39.18,17.27c2.68,0,2.89,2.71,2.89,2.71h1.29v-4.02h-9.53s-1.51,1.97,2.43,6.41c0,0,2.8,3.26,2.87,4.69h-1.61c-2.32,0-2.57-2.71-2.57-2.71h-1.33v4.03h9.61s1.75-1.88-2.58-6.76c0,0-2.27-2.33-2.68-4.35h1.22Z"/>
    <path class="cls-2" d="m50.33,17.27c2.67,0,2.89,2.71,2.89,2.71h1.28v-4.02h-9.52s-1.51,1.97,2.43,6.41c0,0,2.8,3.26,2.87,4.69h-1.61c-2.32,0-2.57-2.71-2.57-2.71h-1.33v4.03h9.61s1.75-1.88-2.58-6.76c0,0-2.27-2.33-2.68-4.35h1.21Z"/>
  </g>
</svg>